<svg>
   <def>
      <symbol xmlns="http://www.w3.org/2000/svg" viewBox="0 0 24 24" id="moon">
         <path fill="currentColor"
            d="M12 1.992a10 10 0 1 0 9.236 13.838c.341-.82-.476-1.644-1.298-1.31a6.5 6.5 0 0 1-6.864-10.787l.077-.08c.551-.63.113-1.653-.758-1.653h-.266l-.068-.006z"></path>
      </symbol>

      <symbol xmlns="http://www.w3.org/2000/svg" viewBox="0 0 24 24" id="sun">
         <g fill="none">
            <path
               d="m12.593 23.258l-.011.002l-.071.035l-.02.004l-.014-.004l-.071-.035q-.016-.005-.024.005l-.004.01l-.017.428l.005.02l.01.013l.104.074l.015.004l.012-.004l.104-.074l.012-.016l.004-.017l-.017-.427q-.004-.016-.017-.018m.265-.113l-.013.002l-.185.093l-.01.01l-.003.011l.018.43l.005.012l.008.007l.201.093q.019.005.029-.008l.004-.014l-.034-.614q-.005-.018-.02-.022m-.715.002a.02.02 0 0 0-.027.006l-.006.014l-.034.614q.001.018.017.024l.015-.002l.201-.093l.01-.008l.004-.011l.017-.43l-.003-.012l-.01-.01z"></path>
            <path fill="currentColor"
               d="M12 19a1 1 0 0 1 1 1v1a1 1 0 1 1-2 0v-1a1 1 0 0 1 1-1m6.364-2.05l.707.707a1 1 0 0 1-1.414 1.414l-.707-.707a1 1 0 0 1 1.414-1.414m-12.728 0a1 1 0 0 1 1.497 1.32l-.083.094l-.707.707a1 1 0 0 1-1.497-1.32l.083-.094zM12 6a6 6 0 1 1 0 12a6 6 0 0 1 0-12m-8 5a1 1 0 0 1 .117 1.993L4 13H3a1 1 0 0 1-.117-1.993L3 11zm17 0a1 1 0 1 1 0 2h-1a1 1 0 1 1 0-2zM4.929 4.929a1 1 0 0 1 1.32-.083l.094.083l.707.707a1 1 0 0 1-1.32 1.497l-.094-.083l-.707-.707a1 1 0 0 1 0-1.414m14.142 0a1 1 0 0 1 0 1.414l-.707.707a1 1 0 1 1-1.414-1.414l.707-.707a1 1 0 0 1 1.414 0M12 2a1 1 0 0 1 1 1v1a1 1 0 1 1-2 0V3a1 1 0 0 1 1-1"></path>
         </g>
      </symbol>

      <symbol xmlns="http://www.w3.org/2000/svg" viewBox="0 0 24 24" id="menu">
         <path fill="currentColor"
            d="M22 18.005c0 .55-.446.995-.995.995h-8.01a.995.995 0 0 1 0-1.99h8.01c.55 0 .995.445.995.995M22 12c0 .55-.446.995-.995.995H2.995a.995.995 0 1 1 0-1.99h18.01c.55 0 .995.446.995.995m-.995-5.01a.995.995 0 0 0 0-1.99H8.995a.995.995 0 1 0 0 1.99z"></path>
      </symbol>

  <symbol xmlns="http://www.w3.org/2000/svg" viewBox="0 0 24 24" id="close">
    <path fill="currentColor" d="M12 23c6.075 0 11-4.925 11-11S18.075 1 12 1S1 5.925 1 12s4.925 11 11 11M8.818 7.403L12 10.586l3.182-3.182l1.414 1.414L13.414 12l3.182 3.182l-1.415 1.414L12 13.414l-3.182 3.182l-1.415-1.414L10.586 12L7.403 8.818z"></path>
  </symbol>

     <symbol xmlns="http://www.w3.org/2000/svg" viewBox="0 0 24 24" id="loading">
         <path fill="currentColor"
            d="M12 2.25c-5.384 0-9.75 4.366-9.75 9.75s4.366 9.75 9.75 9.75v-2.437A7.312 7.312 0 1 1 19.313 12h2.437c0-5.384-4.366-9.75-9.75-9.75"></path>
      </symbol>

      <symbol xmlns="http://www.w3.org/2000/svg" viewBox="0 0 24 24" id="arrow-right-up">
         <path fill="currentColor"
            d="M8 7a1 1 0 0 1 1-1h8a1 1 0 0 1 1 1v8a1 1 0 1 1-2 0V9.414l-8.293 8.293a1 1 0 0 1-1.414-1.414L14.586 8H9a1 1 0 0 1-1-1"></path>
      </symbol>


  <symbol xmlns="http://www.w3.org/2000/svg" viewBox="0 0 24 24" id="sparkles">
    <path d="M0 0h24v24H0z" fill="none"></path>
    <path fill="currentColor" d="m19 1l-1.26 2.75L15 5l2.74 1.26L19 9l1.25-2.74L23 5l-2.75-1.25M9 4L6.5 9.5L1 12l5.5 2.5L9 20l2.5-5.5L17 12l-5.5-2.5M19 15l-1.26 2.74L15 19l2.74 1.25L19 23l1.25-2.75L23 19l-2.75-1.26"></path>
  </symbol>

  <symbol xmlns="http://www.w3.org/2000/svg" viewBox="0 0 24 24" id="instagram">
    <path fill="currentColor" d="M7.8 2h8.4C19.4 2 22 4.6 22 7.8v8.4a5.8 5.8 0 0 1-5.8 5.8H7.8C4.6 22 2 19.4 2 16.2V7.8A5.8 5.8 0 0 1 7.8 2m-.2 2A3.6 3.6 0 0 0 4 7.6v8.8C4 18.39 5.61 20 7.6 20h8.8a3.6 3.6 0 0 0 3.6-3.6V7.6C20 5.61 18.39 4 16.4 4zm9.65 1.5a1.25 1.25 0 0 1 1.25 1.25A1.25 1.25 0 0 1 17.25 8A1.25 1.25 0 0 1 16 6.75a1.25 1.25 0 0 1 1.25-1.25M12 7a5 5 0 0 1 5 5a5 5 0 0 1-5 5a5 5 0 0 1-5-5a5 5 0 0 1 5-5m0 2a3 3 0 0 0-3 3a3 3 0 0 0 3 3a3 3 0 0 0 3-3a3 3 0 0 0-3-3"></path>
  </symbol>


  <symbol xmlns="http://www.w3.org/2000/svg" viewBox="0 0 16 16" id="twitter">
    <path d="M0 0h16v16H0z" fill="none"></path>
    <path fill="currentColor" d="M9.294 6.928L14.357 1h-1.2L8.762 6.147L5.25 1H1.2l5.31 7.784L1.2 15h1.2l4.642-5.436L10.751 15h4.05zM7.651 8.852l-.538-.775L2.832 1.91h1.843l3.454 4.977l.538.775l4.491 6.47h-1.843z"></path>
  </symbol>

  <symbol xmlns="http://www.w3.org/2000/svg" viewBox="0 0 24 24" id="linkedin">
    <path d="M0 0h24v24H0z" fill="none"></path>
    <path fill="currentColor" fill-rule="evenodd" d="M5 1.25a2.75 2.75 0 1 0 0 5.5a2.75 2.75 0 0 0 0-5.5M3.75 4a1.25 1.25 0 1 1 2.5 0a1.25 1.25 0 0 1-2.5 0m-1.5 4A.75.75 0 0 1 3 7.25h4a.75.75 0 0 1 .75.75v13a.75.75 0 0 1-.75.75H3a.75.75 0 0 1-.75-.75zm1.5.75v11.5h2.5V8.75zM9.25 8a.75.75 0 0 1 .75-.75h4a.75.75 0 0 1 .75.75v.434l.435-.187a7.8 7.8 0 0 1 2.358-.595C20.318 7.4 22.75 9.58 22.75 12.38V21a.75.75 0 0 1-.75.75h-4a.75.75 0 0 1-.75-.75v-7a1.25 1.25 0 0 0-2.5 0v7a.75.75 0 0 1-.75.75h-4a.75.75 0 0 1-.75-.75zm1.5.75v11.5h2.5V14a2.75 2.75 0 1 1 5.5 0v6.25h2.5v-7.87c0-1.904-1.661-3.408-3.57-3.234a6.3 6.3 0 0 0-1.904.48l-1.48.635a.75.75 0 0 1-1.046-.69V8.75z" clip-rule="evenodd"></path>
  </symbol>

  <symbol xmlns="http://www.w3.org/2000/svg" viewBox="0 0 24 24" id="github">
    <path d="M0 0h24v24H0z" fill="none"></path>
    <g fill="none" stroke="currentColor" stroke-linecap="round" stroke-linejoin="round" stroke-width="2">
      <path stroke-dasharray="32" d="M12 4c1.67 0 2.61 0.4 3 0.5c0.53 -0.43 1.94 -1.5 3.5 -1.5c0.34 1 0.29 2.22 0 3c0.75 1 1 2 1 3.5c0 2.19 -0.48 3.58 -1.5 4.5c-1.02 0.92 -2.11 1.37 -3.5 1.5c0.65 0.54 0.5 1.87 0.5 2.5c0 0.73 0 3 0 3M12 4c-1.67 0 -2.61 0.4 -3 0.5c-0.53 -0.43 -1.94 -1.5 -3.5 -1.5c-0.34 1 -0.29 2.22 0 3c-0.75 1 -1 2 -1 3.5c0 2.19 0.48 3.58 1.5 4.5c1.02 0.92 2.11 1.37 3.5 1.5c-0.65 0.54 -0.5 1.87 -0.5 2.5c0 0.73 0 3 0 3">
        <animate fill="freeze" attributeName="stroke-dashoffset" dur="0.6s" values="32;0"></animate>
      </path>
      <path stroke-dasharray="10" stroke-dashoffset="10" d="M9 19c-1.41 0 -2.84 -0.56 -3.69 -1.19c-0.84 -0.63 -1.09 -1.66 -2.31 -2.31">
        <animate fill="freeze" attributeName="stroke-dashoffset" begin="0.7s" dur="0.2s" to="0"></animate>
      </path>
    </g>
  </symbol>

        <symbol xmlns="http://www.w3.org/2000/svg" viewBox="0 0 24 24" id="arrow-right-up">
         <path fill="currentColor"
            d="M8 7a1 1 0 0 1 1-1h8a1 1 0 0 1 1 1v8a1 1 0 1 1-2 0V9.414l-8.293 8.293a1 1 0 0 1-1.414-1.414L14.586 8H9a1 1 0 0 1-1-1"></path>
      </symbol>

   </def>
</svg>